<svg width="716" height="716" viewBox="0 0 716 716" fill="none" xmlns="http://www.w3.org/2000/svg">
  <rect width="716" height="716" rx="156" fill="#08182f"/>
  <circle cx="358" cy="358" r="228" fill="#ffffff"/>
  <path d="M505 317c8-30 0-64-23-87-24-24-57-31-87-23-22-22-55-32-87-23-32 9-55 34-64 64-30 8-55 32-64 64-9 32 1 65 23 87-8 30 0 64 23 87 24 24 57 31 87 23 22 22 55 32 87 23 32-9 55-34 64-64 30-8 55-32 64-64 9-32-1-65-23-87Z" fill="#12b981"/>
  <path d="M358 230l113 65v130l-113 65-113-65V295l113-65Z" fill="#08182f"/>
  <path d="M358 296l56 32v65l-56 32-56-32v-65l56-32Z" fill="#f4c95d"/>
</svg>
